<svg width="2873" height="1226" viewBox="0 0 2873 1226" fill="none" xmlns="http://www.w3.org/2000/svg">
<g clip-path="url(#clip0_7762_63)">
<mask id="mask0_7762_63" style="mask-type:luminance" maskUnits="userSpaceOnUse" x="0" y="0" width="1200" height="1200">
<path d="M1200 0H0V1200H1200V0Z" fill="white"/>
</mask>
<g mask="url(#mask0_7762_63)">
<mask id="mask1_7762_63" style="mask-type:luminance" maskUnits="userSpaceOnUse" x="0" y="0" width="1200" height="1200">
<path d="M1200 0H0V1200H1200V0Z" fill="white"/>
</mask>
<g mask="url(#mask1_7762_63)">
<mask id="mask2_7762_63" style="mask-type:luminance" maskUnits="userSpaceOnUse" x="0" y="0" width="1200" height="1200">
<path d="M1200 0H0V1200H1200V0Z" fill="white"/>
</mask>
<g mask="url(#mask2_7762_63)">
<path d="M608.515 922.926C779.295 922.926 917.74 784.482 917.74 613.702C917.74 442.92 779.295 304.477 608.515 304.477C437.735 304.477 299.289 442.92 299.289 613.702C299.289 784.482 437.735 922.926 608.515 922.926Z" fill="#B0824A"/>
<path d="M999.909 351.909L1020.5 297L1041.09 351.909L1096 372.499L1041.09 393.091L1020.5 448L999.909 393.091L945 372.499L999.909 351.909Z" fill="#B0824A"/>
<path d="M275.213 165.212L303.844 65L332.477 165.212L432.688 193.844L332.477 222.475L303.844 322.687L275.213 222.475L175 193.844L275.213 165.212Z" fill="#B0824A"/>
<path d="M18.1816 1218.1L603.833 408.523L603.834 1218.1H18.1816Z" fill="white"/>
<path d="M603.83 408.523L1189.48 1218.1H603.83V408.523Z" fill="#7A6647"/>
<path d="M227 1200L603.997 603L981 1200H227Z" fill="#D8D2C6"/>
<path d="M437 867H770L736.477 961H470.793L437 867Z" fill="#1A1714"/>
<path d="M533.555 960.438H674.111L650.684 1089.28H556.98L533.555 960.438Z" fill="#1A1714"/>
<path d="M296.757 1089H911L981 1200H227L296.757 1089Z" fill="#1A1714"/>
</g>
</g>
</g>
</g>
<path d="M1214.14 298.058H1316.69V664.775H1467.91C1462.64 669.906 1458.21 675.869 1454.6 682.664C1451 689.459 1448.08 695.977 1445.87 702.217C1443.37 709.566 1441.36 716.985 1439.83 724.474L1430.06 726.554C1430.75 724.058 1431.17 721.562 1431.3 719.065C1431.58 716.569 1431.72 714.281 1431.72 712.201C1431.72 703.049 1428.81 696.254 1422.98 691.816C1417.3 687.379 1409.12 684.328 1398.44 682.664C1387.76 681.139 1374.73 680.515 1359.33 680.792C1343.94 680.931 1326.61 681 1307.33 681H1214.14V673.304C1221.49 673.304 1227.53 672.61 1232.24 671.224C1236.96 669.698 1240.7 667.688 1243.47 665.191C1246.25 662.557 1248.12 659.575 1249.09 656.247C1250.2 652.919 1250.75 649.383 1250.75 645.639V333.003C1250.75 330.229 1250.2 327.248 1249.09 324.059C1248.12 320.869 1246.25 317.957 1243.47 315.322C1240.84 312.549 1237.16 310.261 1232.45 308.458C1227.73 306.655 1221.63 305.754 1214.14 305.754V298.058ZM1598.96 448.447C1609.36 448.447 1618.86 449.557 1627.46 451.775C1636.19 453.994 1643.89 456.698 1650.54 459.888C1657.34 463.077 1663.16 466.475 1668.02 470.08C1673.01 473.686 1676.96 476.944 1679.87 479.856C1684.17 476.528 1688.82 473.547 1693.81 470.912C1698.8 468.139 1703.86 465.781 1709 463.84C1714.13 461.898 1719.19 460.442 1724.18 459.472C1729.31 458.362 1734.16 457.669 1738.74 457.392L1741.24 464.256C1735.69 466.475 1730.7 470.08 1726.26 475.072C1722.52 479.371 1719.05 485.265 1715.86 492.753C1712.67 500.241 1710.94 510.018 1710.66 522.082C1710.52 529.154 1710.45 536.504 1710.45 544.131C1710.45 551.758 1710.38 559.315 1710.24 566.804C1710.24 574.153 1710.17 581.226 1710.04 588.021C1710.04 594.677 1709.97 600.64 1709.83 605.909C1709.83 611.179 1709.83 615.478 1709.83 618.806C1709.83 621.995 1709.83 623.867 1709.83 624.422C1709.83 636.486 1711.35 646.263 1714.4 653.751C1717.59 661.239 1721.13 667.133 1725.01 671.432C1729.59 676.424 1734.72 680.029 1740.4 682.248L1737.91 689.112C1731.11 688.835 1723.83 687.656 1716.07 685.576C1708.3 683.496 1700.74 680.584 1693.39 676.84C1686.04 673.096 1679.25 668.658 1673.01 663.527C1666.77 658.258 1661.71 652.295 1657.83 645.639C1655.05 650.908 1651.52 656.039 1647.22 661.031C1642.92 666.023 1637.65 670.461 1631.41 674.344C1625.17 678.227 1617.82 681.347 1609.36 683.704C1600.9 686.2 1591.19 687.448 1580.24 687.448C1562.21 687.448 1546.33 684.259 1532.6 677.88C1519.01 671.362 1507.64 662.903 1498.49 652.503C1489.34 641.964 1482.41 630.107 1477.69 616.934C1473.11 603.76 1470.83 590.447 1470.83 576.996C1470.83 566.873 1472 556.681 1474.36 546.419C1476.86 536.157 1480.46 526.312 1485.18 516.882C1490.03 507.313 1496 498.369 1503.07 490.049C1510.28 481.729 1518.6 474.518 1528.03 468.416C1537.6 462.176 1548.27 457.322 1560.06 453.855C1571.85 450.25 1584.81 448.447 1598.96 448.447ZM1599.79 665.607C1609.5 665.607 1617.54 663.389 1623.92 658.951C1630.3 654.514 1635.36 649.105 1639.1 642.727C1642.99 636.348 1645.83 629.622 1647.63 622.55C1649.44 615.478 1650.68 609.237 1651.38 603.829L1653.04 524.994C1652.76 522.082 1652.21 518.546 1651.38 514.386C1650.68 510.226 1649.57 505.927 1648.05 501.489C1646.52 497.052 1644.51 492.614 1642.02 488.177C1639.66 483.601 1636.61 479.579 1632.86 476.112C1629.12 472.646 1624.61 469.803 1619.34 467.584C1614.21 465.365 1608.18 464.256 1601.25 464.256C1590.85 464.256 1581.42 466.891 1572.96 472.16C1564.5 477.43 1557.29 484.641 1551.33 493.793C1545.36 502.807 1540.72 513.346 1537.39 525.41C1534.2 537.475 1532.6 550.302 1532.6 563.892C1532.6 581.642 1534.48 596.896 1538.22 609.653C1542.1 622.411 1547.17 632.95 1553.41 641.271C1559.78 649.591 1567 655.762 1575.04 659.783C1583.08 663.666 1591.33 665.607 1599.79 665.607ZM1883.31 681H1766.41V673.304C1772.23 673.304 1776.94 672.749 1780.55 671.64C1784.29 670.392 1787.21 668.797 1789.29 666.855C1791.37 664.775 1792.75 662.487 1793.45 659.991C1794.28 657.356 1794.69 654.583 1794.69 651.671V485.889C1794.69 483.809 1794.28 481.59 1793.45 479.232C1792.75 476.736 1791.37 474.518 1789.29 472.576C1787.21 470.496 1784.29 468.832 1780.55 467.584C1776.94 466.197 1772.23 465.504 1766.41 465.504V457.392H1883.31V465.504C1877.76 465.504 1873.11 466.059 1869.37 467.168C1865.76 468.277 1862.85 469.733 1860.63 471.536C1858.55 473.339 1857.1 475.488 1856.26 477.984C1855.43 480.342 1855.02 482.838 1855.02 485.473V538.307C1859.87 547.875 1865.69 558.137 1872.49 569.092C1879.28 579.908 1887.26 590.725 1896.41 601.541C1905.56 612.357 1916.03 622.758 1927.82 632.742C1939.61 642.727 1952.85 651.602 1967.55 659.367V487.137C1967.55 485.057 1967.2 482.769 1966.51 480.272C1965.95 477.638 1964.64 475.28 1962.56 473.2C1960.62 470.981 1957.77 469.179 1954.03 467.792C1950.42 466.267 1945.57 465.504 1939.47 465.504V457.392H2056.16V465.504C2050.61 465.504 2046.04 466.059 2042.43 467.168C2038.83 468.277 2035.91 469.733 2033.7 471.536C2031.62 473.339 2030.16 475.488 2029.33 477.984C2028.5 480.342 2028.08 482.838 2028.08 485.473V652.919C2028.08 654.999 2028.43 657.218 2029.12 659.575C2029.95 661.933 2031.41 664.151 2033.49 666.231C2035.57 668.173 2038.41 669.837 2042.02 671.224C2045.62 672.61 2050.34 673.304 2056.16 673.304V681H1967.55C1957.43 678.504 1947.09 674.274 1936.56 668.312C1926.16 662.349 1916.03 655.623 1906.19 648.135C1896.48 640.508 1887.19 632.534 1878.31 624.214C1869.58 615.894 1861.81 608.128 1855.02 600.917V651.671C1855.02 653.751 1855.36 656.039 1856.06 658.535C1856.75 661.031 1858.07 663.389 1860.01 665.607C1862.09 667.688 1864.93 669.49 1868.54 671.016C1872.28 672.541 1877.2 673.304 1883.31 673.304V681ZM2276.02 647.303C2272.7 652.295 2268.61 657.218 2263.75 662.071C2258.9 666.786 2253.14 671.085 2246.49 674.968C2239.83 678.712 2232.27 681.693 2223.81 683.912C2215.36 686.27 2205.79 687.448 2195.11 687.448C2177.08 687.448 2161.2 684.259 2147.48 677.88C2133.89 671.362 2122.51 662.903 2113.36 652.503C2104.21 641.964 2097.28 630.107 2092.56 616.934C2087.99 603.76 2085.7 590.447 2085.7 576.996C2085.7 566.873 2086.67 556.681 2088.61 546.419C2090.69 536.157 2093.81 526.312 2097.97 516.882C2102.13 507.313 2107.4 498.369 2113.78 490.049C2120.16 481.729 2127.78 474.518 2136.66 468.416C2145.53 462.176 2155.66 457.322 2167.03 453.855C2178.4 450.25 2191.16 448.447 2205.3 448.447C2213.34 448.447 2220.9 449.141 2227.97 450.527C2235.05 451.775 2241.5 453.509 2247.32 455.728C2253.28 457.808 2258.62 460.234 2263.34 463.008C2268.19 465.643 2272.42 468.277 2276.02 470.912V381.469C2276.02 379.389 2275.61 377.17 2274.78 374.812C2274.08 372.316 2272.7 370.098 2270.62 368.156C2268.54 366.076 2265.69 364.412 2262.09 363.164C2258.48 361.777 2253.77 361.084 2247.94 361.084V352.972H2336.55V652.919C2336.55 654.999 2336.9 657.218 2337.59 659.575C2338.43 661.933 2339.88 664.151 2341.96 666.231C2344.04 668.173 2346.89 669.837 2350.49 671.224C2354.24 672.61 2358.95 673.304 2364.64 673.304V681H2276.02V647.303ZM2210.5 665.607C2219.52 665.607 2227.42 663.943 2234.21 660.615C2241.01 657.287 2246.83 653.127 2251.69 648.135C2256.54 643.143 2260.49 637.665 2263.54 631.702C2266.73 625.601 2269.23 619.846 2271.03 614.438C2272.97 608.891 2274.29 604.106 2274.98 600.085C2275.68 595.925 2276.02 593.221 2276.02 591.973V510.642L2260.01 532.274C2259.31 519.655 2257.1 508.354 2253.35 498.369C2251.69 494.07 2249.61 489.91 2247.11 485.889C2244.62 481.729 2241.5 478.054 2237.75 474.864C2234.15 471.675 2229.85 469.109 2224.85 467.168C2219.86 465.227 2214.11 464.256 2207.59 464.256C2197.19 464.256 2188.18 466.891 2180.55 472.16C2172.92 477.43 2166.68 484.641 2161.83 493.793C2156.97 502.807 2153.37 513.346 2151.01 525.41C2148.65 537.475 2147.48 550.302 2147.48 563.892C2147.48 581.642 2149.14 596.896 2152.47 609.653C2155.93 622.411 2160.51 632.95 2166.2 641.271C2171.88 649.591 2178.54 655.762 2186.17 659.783C2193.79 663.666 2201.9 665.607 2210.5 665.607Z" fill="white"/>
<path d="M1214.14 786.717H1477.69C1474.92 792.264 1472.77 798.227 1471.24 804.605C1469.86 810.846 1468.82 816.67 1468.12 822.078C1467.43 827.486 1467.01 832.062 1466.87 835.807C1466.74 839.551 1466.67 841.7 1466.67 842.255L1459.39 843.503C1457.44 834.212 1453.91 826.654 1448.78 820.83C1443.65 815.006 1437.61 810.499 1430.68 807.31C1423.75 803.981 1416.33 801.763 1408.42 800.653C1400.52 799.405 1392.82 798.781 1385.33 798.781H1316.69V950.419H1450.86C1447.95 956.243 1445.73 962.345 1444.2 968.724C1442.68 975.103 1441.57 981.065 1440.87 986.612C1440.04 993.13 1439.56 999.509 1439.42 1005.75L1432.55 1007C1431.03 999.509 1429.22 993.269 1427.14 988.276C1425.06 983.146 1422.22 978.916 1418.62 975.588C1415.15 972.26 1410.71 969.694 1405.3 967.892C1400.03 966.089 1393.38 964.771 1385.33 963.939C1377.29 963.107 1367.65 962.622 1356.42 962.483C1345.19 962.345 1331.95 962.275 1316.69 962.275V1108.5C1316.69 1111.56 1315.51 1114.95 1313.16 1118.7C1310.8 1122.58 1307.75 1126.81 1304 1131.39C1300.26 1135.96 1295.96 1140.82 1291.11 1145.95C1286.39 1151.22 1281.61 1156.69 1276.75 1162.38C1271.9 1168.2 1267.19 1174.24 1262.61 1180.48C1258.03 1186.85 1254.08 1193.37 1250.75 1200.03V821.662C1250.75 818.889 1250.2 815.907 1249.09 812.718C1248.12 809.528 1246.25 806.616 1243.47 803.981C1240.84 801.208 1237.16 798.92 1232.45 797.117C1227.73 795.314 1221.63 794.413 1214.14 794.413V786.717ZM1498.28 973.3C1498.28 964.563 1499.39 955.619 1501.61 946.467C1503.83 937.176 1507.23 928.093 1511.8 919.218C1516.38 910.343 1522.13 902.022 1529.07 894.257C1536.14 886.353 1544.39 879.419 1553.82 873.456C1563.39 867.493 1574.21 862.778 1586.27 859.312C1598.47 855.845 1611.99 854.111 1626.83 854.111C1642.36 854.111 1656.3 855.706 1668.64 858.896C1681.12 862.085 1692.15 866.522 1701.71 872.208C1711.28 877.755 1719.53 884.342 1726.47 891.969C1733.4 899.596 1739.09 907.847 1743.52 916.722C1747.96 925.597 1751.22 934.888 1753.3 944.595C1755.38 954.163 1756.42 963.731 1756.42 973.3C1756.42 982.452 1755.38 991.743 1753.3 1001.17C1751.22 1010.46 1747.89 1019.48 1743.32 1028.21C1738.88 1036.95 1733.19 1045.2 1726.26 1052.97C1719.46 1060.59 1711.21 1067.25 1701.51 1072.94C1691.94 1078.62 1680.91 1083.13 1668.43 1086.46C1656.09 1089.78 1642.22 1091.45 1626.83 1091.45C1611.99 1091.45 1598.54 1089.78 1586.48 1086.46C1574.41 1083.27 1563.6 1078.83 1554.03 1073.14C1544.6 1067.46 1536.35 1060.8 1529.28 1053.17C1522.34 1045.41 1516.52 1037.16 1511.8 1028.42C1507.23 1019.69 1503.83 1010.6 1501.61 1001.17C1499.39 991.743 1498.28 982.452 1498.28 973.3ZM1561.73 972.468C1561.73 985.642 1562.63 998.469 1564.43 1010.95C1566.37 1023.43 1569.7 1034.52 1574.41 1044.23C1579.27 1053.94 1585.79 1061.84 1593.97 1067.94C1602.29 1073.91 1612.83 1077.03 1625.58 1077.3C1634.04 1077.3 1641.6 1075.92 1648.26 1073.14C1654.91 1070.23 1660.74 1066.28 1665.73 1061.29C1670.72 1056.29 1674.95 1050.47 1678.42 1043.81C1681.88 1037.16 1684.73 1030.02 1686.95 1022.39C1689.17 1014.76 1690.76 1006.86 1691.73 998.677C1692.84 990.495 1693.53 982.383 1693.81 974.34C1693.81 966.158 1693.39 957.838 1692.56 949.379C1691.73 940.92 1690.34 932.808 1688.4 925.042C1686.46 917.138 1683.83 909.788 1680.5 902.993C1677.31 896.06 1673.29 890.097 1668.43 885.104C1663.58 879.974 1657.83 875.952 1651.17 873.04C1644.65 870.128 1637.02 868.672 1628.29 868.672C1615.53 868.672 1604.92 871.584 1596.46 877.408C1588 883.094 1581.21 890.721 1576.08 900.289C1570.95 909.857 1567.27 920.951 1565.05 933.57C1562.97 946.051 1561.86 959.017 1561.73 972.468ZM2041.6 1083.34C2031.75 1086.94 2022.67 1089.44 2014.35 1090.82C2006.17 1092.35 1998.68 1093.11 1991.89 1093.11C1983.7 1093.11 1975.66 1091.31 1967.76 1087.7C1959.99 1084.1 1952.57 1079.45 1945.5 1073.77C1938.43 1068.08 1931.77 1061.7 1925.53 1054.63C1919.43 1047.56 1913.88 1040.56 1908.89 1033.62C1904.04 1026.69 1899.81 1020.17 1896.2 1014.07C1892.74 1007.97 1890.1 1003.04 1888.3 999.301C1901.75 997.082 1913.81 993.13 1924.49 987.444C1929.07 984.948 1933.5 982.036 1937.8 978.708C1942.1 975.241 1945.92 971.15 1949.24 966.436C1952.71 961.721 1955.48 956.382 1957.56 950.419C1959.64 944.456 1960.68 937.661 1960.68 930.034C1960.68 919.495 1958.74 910.828 1954.86 904.033C1950.98 897.1 1946.12 891.622 1940.3 887.601C1934.61 883.579 1928.37 880.806 1921.58 879.28C1914.92 877.616 1908.82 876.784 1903.27 876.784C1897.73 876.784 1893.08 877.339 1889.34 878.448C1885.73 879.558 1882.82 881.014 1880.6 882.816C1878.52 884.619 1877.07 886.769 1876.23 889.265C1875.4 891.622 1874.99 894.118 1874.99 896.753V1055.67C1874.99 1057.75 1875.33 1060.04 1876.03 1062.54C1876.72 1065.03 1878.04 1067.39 1879.98 1069.61C1882.06 1071.69 1884.9 1073.49 1888.51 1075.02C1892.25 1076.54 1897.17 1077.3 1903.27 1077.3V1085H1785.96V1077.3C1791.78 1077.3 1796.5 1076.75 1800.1 1075.64C1803.85 1074.39 1806.76 1072.8 1808.84 1070.86C1810.92 1068.78 1812.31 1066.49 1813 1063.99C1813.83 1061.36 1814.25 1058.58 1814.25 1055.67V889.889C1814.25 887.809 1813.83 885.59 1813 883.232C1812.31 880.736 1810.92 878.518 1808.84 876.576C1806.76 874.496 1803.85 872.832 1800.1 871.584C1796.5 870.197 1791.78 869.504 1785.96 869.504V861.392H1903.27C1918.25 861.392 1932.95 862.709 1947.37 865.344C1961.79 867.84 1974.62 871.861 1985.85 877.408C1997.22 882.955 2006.38 890.097 2013.31 898.833C2020.24 907.431 2023.71 917.831 2023.71 930.034C2023.71 939.741 2021.56 948.27 2017.26 955.619C2012.96 962.969 2007.28 969.417 2000.21 974.964C1993.13 980.372 1985.02 984.948 1975.87 988.692C1966.86 992.298 1957.56 995.279 1948 997.637C1953.27 1007.34 1959.37 1016.98 1966.3 1026.55C1973.23 1035.98 1980.24 1044.44 1987.31 1051.93C1994.38 1059.42 2001.18 1065.45 2007.69 1070.02C2014.35 1074.6 2019.97 1076.89 2024.54 1076.89C2025.93 1076.89 2027.87 1076.75 2030.37 1076.47C2033 1076.06 2035.91 1075.22 2039.1 1073.98L2041.6 1083.34ZM2314.83 979.05H2309.94C2299.19 979.05 2293.32 984.266 2293.64 993.72V1047.84C2278.32 1067.4 2237.9 1089.89 2185.74 1089.89C2111.41 1089.89 2062.18 1043.92 2062.18 970.574C2062.18 897.876 2110.43 852.562 2187.37 852.562C2223.23 852.562 2258.11 860.386 2277.34 870.166L2278 925.912H2275.39C2263 881.576 2232.03 866.254 2197.47 866.254C2144.01 866.254 2115.32 906.352 2115.32 972.53C2115.32 1035.77 2141.73 1075.87 2189.98 1075.87C2213.77 1075.87 2237.57 1064.46 2245.07 1043.92V994.046C2245.07 984.266 2238.88 979.05 2228.44 979.05H2223.23V975.79H2314.83V979.05ZM2402.93 954.995C2402.66 958.046 2402.52 961.027 2402.52 963.939C2402.52 966.713 2402.52 969.556 2402.52 972.468C2402.52 985.642 2403.35 998.469 2405.01 1010.95C2406.68 1023.43 2409.73 1034.52 2414.17 1044.23C2418.74 1053.94 2425.05 1061.84 2433.1 1067.94C2441.14 1073.91 2451.54 1077.03 2464.3 1077.3C2472.48 1077.3 2479.76 1075.99 2486.14 1073.35C2492.66 1070.72 2498.34 1067.11 2503.19 1062.54C2508.05 1057.82 2512.21 1052.34 2515.67 1046.1C2519.14 1039.86 2522.05 1033.07 2524.41 1025.72L2573.5 1042.36C2568.51 1049.43 2562.55 1055.95 2555.61 1061.91C2548.68 1067.87 2540.71 1073.07 2531.69 1077.51C2522.82 1081.81 2512.83 1085.21 2501.74 1087.7C2490.78 1090.2 2478.72 1091.45 2465.54 1091.45C2450.71 1091.45 2437.26 1089.78 2425.19 1086.46C2413.13 1083.27 2402.31 1078.83 2392.74 1073.14C2383.31 1067.46 2375.06 1060.8 2367.99 1053.17C2361.06 1045.41 2355.23 1037.16 2350.52 1028.42C2345.94 1019.69 2342.54 1010.6 2340.32 1001.17C2338.11 991.743 2337 982.452 2337 973.3C2337 964.563 2337.97 955.619 2339.91 946.467C2341.99 937.176 2345.18 928.093 2349.48 919.218C2353.78 910.343 2359.18 902.022 2365.7 894.257C2372.36 886.353 2380.26 879.419 2389.41 873.456C2398.71 867.493 2409.31 862.778 2421.24 859.312C2433.17 855.845 2446.55 854.111 2461.38 854.111C2483.16 854.111 2501.67 856.815 2516.92 862.224C2532.32 867.632 2544.93 874.981 2554.78 884.272C2564.76 893.425 2572.18 904.103 2577.04 916.306C2582.03 928.509 2585.08 941.405 2586.19 954.995H2402.93ZM2462.63 868.672C2452.51 868.672 2443.91 870.544 2436.84 874.288C2429.91 878.032 2424.15 883.163 2419.58 889.681C2415 896.198 2411.46 903.895 2408.97 912.77C2406.61 921.506 2404.88 930.936 2403.77 941.059H2521.08C2520.25 931.074 2518.73 921.714 2516.51 912.978C2514.43 904.241 2511.17 896.614 2506.73 890.097C2502.43 883.44 2496.68 878.24 2489.47 874.496C2482.39 870.613 2473.45 868.672 2462.63 868.672ZM2866.58 1083.34C2856.74 1086.94 2847.66 1089.44 2839.33 1090.82C2831.15 1092.35 2823.67 1093.11 2816.87 1093.11C2808.69 1093.11 2800.65 1091.31 2792.74 1087.7C2784.98 1084.1 2777.56 1079.45 2770.48 1073.77C2763.41 1068.08 2756.76 1061.7 2750.52 1054.63C2744.41 1047.56 2738.87 1040.56 2733.88 1033.62C2729.02 1026.69 2724.79 1020.17 2721.19 1014.07C2717.72 1007.97 2715.08 1003.04 2713.28 999.301C2726.73 997.082 2738.8 993.13 2749.48 987.444C2754.05 984.948 2758.49 982.036 2762.79 978.708C2767.09 975.241 2770.9 971.15 2774.23 966.436C2777.7 961.721 2780.47 956.382 2782.55 950.419C2784.63 944.456 2785.67 937.661 2785.67 930.034C2785.67 919.495 2783.73 910.828 2779.84 904.033C2775.96 897.1 2771.11 891.622 2765.28 887.601C2759.6 883.579 2753.36 880.806 2746.56 879.28C2739.91 877.616 2733.81 876.784 2728.26 876.784C2722.71 876.784 2718.07 877.339 2714.32 878.448C2710.72 879.558 2707.8 881.014 2705.59 882.816C2703.51 884.619 2702.05 886.769 2701.22 889.265C2700.39 891.622 2699.97 894.118 2699.97 896.753V1055.67C2699.97 1057.75 2700.32 1060.04 2701.01 1062.54C2701.7 1065.03 2703.02 1067.39 2704.96 1069.61C2707.04 1071.69 2709.88 1073.49 2713.49 1075.02C2717.23 1076.54 2722.16 1077.3 2728.26 1077.3V1085H2610.94V1077.3C2616.77 1077.3 2621.48 1076.75 2625.09 1075.64C2628.83 1074.39 2631.74 1072.8 2633.82 1070.86C2635.9 1068.78 2637.29 1066.49 2637.98 1063.99C2638.82 1061.36 2639.23 1058.58 2639.23 1055.67V889.889C2639.23 887.809 2638.82 885.59 2637.98 883.232C2637.29 880.736 2635.9 878.518 2633.82 876.576C2631.74 874.496 2628.83 872.832 2625.09 871.584C2621.48 870.197 2616.77 869.504 2610.94 869.504V861.392H2728.26C2743.24 861.392 2757.93 862.709 2772.36 865.344C2786.78 867.84 2799.61 871.861 2810.84 877.408C2822.21 882.955 2831.36 890.097 2838.29 898.833C2845.23 907.431 2848.7 917.831 2848.7 930.034C2848.7 939.741 2846.55 948.27 2842.25 955.619C2837.95 962.969 2832.26 969.417 2825.19 974.964C2818.12 980.372 2810.01 984.948 2800.85 988.692C2791.84 992.298 2782.55 995.279 2772.98 997.637C2778.25 1007.34 2784.35 1016.98 2791.29 1026.55C2798.22 1035.98 2805.22 1044.44 2812.29 1051.93C2819.37 1059.42 2826.16 1065.45 2832.68 1070.02C2839.33 1074.6 2844.95 1076.89 2849.53 1076.89C2850.91 1076.89 2852.86 1076.75 2855.35 1076.47C2857.99 1076.06 2860.9 1075.22 2864.09 1073.98L2866.58 1083.34Z" fill="white"/>
<defs>
<clipPath id="clip0_7762_63">
<rect width="1200" height="1200" fill="white"/>
</clipPath>
</defs>
</svg>
